<svg xmlns="http://www.w3.org/2000/svg" width="106" height="53" fill="none"><g fill="#AFB1B8" clip-path="url(#a)"><path d="M26.757 44.822c.244.276.373.622.367.977a1.43 1.43 0 0 1-.131.676 1.557 1.557 0 0 1-.438.558 2.627 2.627 0 0 1-1.651.45H22v-6.19h2.844a2.593 2.593 0 0 1 1.576.41c.184.141.33.32.425.52.096.202.139.42.127.64.016.34-.1.676-.33.946-.221.246-.526.416-.866.484.385.064.733.252.98.53Zm-3.406-.934h1.216c.276.018.55-.055.773-.206a.738.738 0 0 0 .207-.275.68.68 0 0 0 .054-.33.701.701 0 0 0-.055-.329.76.76 0 0 0-.203-.276 1.255 1.255 0 0 0-.796-.209H23.35v1.625Zm2.108 2.374a.777.777 0 0 0 .224-.284.711.711 0 0 0 .063-.345.722.722 0 0 0-.066-.35.788.788 0 0 0-.228-.285 1.338 1.338 0 0 0-.826-.224h-1.275v1.703h1.292c.29.015.578-.06.816-.215ZM32.57 47.484l-1.581-2.42h-.595v2.42h-1.361v-6.192h2.577a2.699 2.699 0 0 1 1.793.527c.36.336.578.778.613 1.248a1.86 1.86 0 0 1-.421 1.314 2.147 2.147 0 0 1-1.229.629l1.685 2.474h-1.48Zm-2.176-3.264h1.113c.773 0 1.16-.312 1.16-.937a.852.852 0 0 0-.063-.376.917.917 0 0 0-.221-.32 1.282 1.282 0 0 0-.876-.251h-1.126l.013 1.884ZM40.01 46.238h-2.712l-.479 1.246h-1.427l2.49-6.122h1.544l2.48 6.122H40.48l-.469-1.246Zm-.363-.938-.991-2.613-.991 2.613h1.982ZM49.322 47.484h-1.35l-3.03-4.21v4.21h-1.348v-6.192h1.348l3.03 4.235v-4.235h1.35v6.192ZM57.033 46.002c-.28.467-.705.847-1.223 1.092a4.287 4.287 0 0 1-1.9.39h-2.404v-6.192h2.405a4.376 4.376 0 0 1 1.9.381c.517.24.943.616 1.222 1.08.278.504.423 1.06.423 1.625 0 .564-.145 1.12-.423 1.624Zm-1.546-.148a2.16 2.16 0 0 0 .597-1.478c0-.542-.212-1.066-.597-1.477a2.488 2.488 0 0 0-1.692-.527h-.938v4.008h.938a2.489 2.489 0 0 0 1.692-.526ZM40.856 6.854s17.438 6.028 17.069 14.75V36.36s-17.426-6.031-17.063-14.754l-.006-14.751ZM73.46 32.905c3.294-2.075 7.103-3.36 11.08-3.739v-4.618c-4.582 1.617-8.47 4.549-11.08 8.357Z"/><path d="M71.482 34.296c2.695-4.97 7.368-8.805 13.058-10.716V10.272S59.705 18.858 60.23 31.28v21.006s1.107-.384 2.848-1.104c0-.672 0-1.349.08-2.03.513-5.767 3.507-11.11 8.324-14.857Z"/><path d="M69.12 42.1a20.05 20.05 0 0 1 .868-4.301c-2.998 3.235-4.815 7.25-5.192 11.479-.037.399-.057.798-.067 1.21a74.756 74.756 0 0 0 4.777-2.305c-.44-2.001-.57-4.049-.386-6.083ZM70.108 42.176a19.051 19.051 0 0 0 .307 5.508c6.785-3.718 14.41-9.462 14.115-16.403v-.605c-4.848.497-9.383 2.437-12.91 5.523a19.26 19.26 0 0 0-1.513 5.977Z"/></g><defs><clipPath id="a"><path fill="#fff" d="M0 .087h106v52.826H0z"/></clipPath></defs></svg>